<?xml version="1.0" standalone="no"?><!DOCTYPE svg PUBLIC "-//W3C//DTD SVG 1.1//EN" "http://www.w3.org/Graphics/SVG/1.1/DTD/svg11.dtd"><svg t="1504427124395" class="icon" style="" viewBox="0 0 1024 1024" version="1.1" xmlns="http://www.w3.org/2000/svg" p-id="3535" xmlns:xlink="http://www.w3.org/1999/xlink" width="200" height="200"><defs><style type="text/css"></style></defs><path d="M714.509961 12.099538H396.638975c-131.659102 0-238.417355 106.734054-238.417355 238.385089v120.511395l-51.374637 51.374637c-47.680245 47.672178-47.672178 124.99629 0 172.652335l107.911743 107.919809c0.838901 0.846968 1.782665 1.57294 2.645766 2.395708a238.909403 238.909403 0 0 0 116.881533 73.258667 37.58923 37.58923 0 0 0-5.49319 19.407659v175.886945a38.03288 38.03288 0 0 0 38.03288 38.016747h396.905165a38.03288 38.03288 0 0 0 38.03288-38.016747V798.004837c0-9.292445-3.4766-17.689524-9.010123-24.312005 93.222904-32.410628 160.157546-120.963111 160.157546-225.196593V250.484627C952.911183 118.833592 846.160996 12.099538 714.509961 12.099538z" fill="#FF1A1A" p-id="3536"></path><path d="M714.509961 106.121011H396.638975c-131.659102 0-238.417355 106.750187-238.417355 238.401223V465.025562l-51.374637 51.358504a121.802012 121.802012 0 0 0-26.328593 39.323497 121.479358 121.479358 0 0 0 26.328593 39.307364l107.911743 107.91981c0.838901 0.846968 1.782665 1.57294 2.645766 2.395708a238.909403 238.909403 0 0 0 116.881533 73.258667 37.58923 37.58923 0 0 0-5.49319 19.407658v72.895681c1.847196 0.548512 3.629861 1.209954 5.49319 1.718135a37.645695 37.645695 0 0 0-5.49319 19.423791v81.841272a38.03288 38.03288 0 0 0 38.03288 38.016747h396.905165a38.03288 38.03288 0 0 0 38.03288-38.016747v-81.841272c0-9.292445-3.4766-17.689524-9.010123-24.312005 3.05715-1.072826 6.001371-2.34731 9.010123-3.533065V798.004837c0-9.292445-3.4766-17.689524-9.010123-24.312005 93.222904-32.410628 160.157546-120.963111 160.157546-225.196593V344.522234c0-131.642969-106.750187-238.401223-238.401222-238.401223z" fill="#D60909" p-id="3537"></path><path d="M592.119105 784.453355h-22.739065a12.099538 12.099538 0 1 1 0-24.199076h22.739065a12.099538 12.099538 0 1 1 0 24.199076zM512.004033 784.453355h-22.747131a12.099538 12.099538 0 1 1 0-24.199076h22.747131a12.099538 12.099538 0 1 1 0 24.199076zM431.880895 784.453355h-22.739064a12.099538 12.099538 0 1 1 0-24.199076h22.739064a12.099538 12.099538 0 1 1 0 24.199076z" fill="#33363A" p-id="3538"></path><path d="M732.05429 348.039166a22.093756 22.093756 0 0 0-17.891183-15.076024l-86.310034-12.55932-38.605592-78.23561a22.15022 22.15022 0 0 0-39.734881 0l-38.605592 78.23561-86.318101 12.55932a22.158287 22.158287 0 0 0-12.276997 37.790889l62.465879 60.860674-14.761436 85.971248a22.158287 22.158287 0 0 0 32.168638 23.344041l77.195049-40.565716 77.19505 40.565716a22.190552 22.190552 0 0 0 23.335975-1.653603 22.158287 22.158287 0 0 0 8.808464-21.690438l-14.745304-85.971248 62.46588-60.860674a22.182486 22.182486 0 0 0 5.614185-22.714865z" fill="#FFD00B" p-id="3539"></path><path d="M663.974225 431.614705l50.447006-49.17252c-0.096796 0-0.169394-0.032265-0.258124-0.048399l-86.310034-12.55932-38.605592-78.219477c-3.726658-7.566244-11.43003-12.333462-19.867441-12.333462s-16.14885 4.775284-19.86744 12.333462l-38.605592 78.219477-86.318101 12.55932c-0.080664 0.016133-0.169394 0.048398-0.250057 0.048399l50.447006 49.17252-7.259723 42.348382 7.259723 7.090329-9.43764 54.980299c1.048627 1.177688 2.185983 2.282779 3.5008 3.242676a22.182486 22.182486 0 0 0 23.344041 1.653603l77.19505-40.565716 77.19505 40.565716a22.190552 22.190552 0 0 0 23.335975-1.653603c1.30675-0.959897 2.444107-2.064988 3.500799-3.242676l-9.437639-54.980299 7.259722-7.090329-7.267789-42.348382z" fill="#FFBE08" p-id="3540"></path><path d="M481.851985 555.634966a34.26589 34.26589 0 0 1-20.077166-6.533751 34.096497 34.096497 0 0 1-13.680543-33.572183l13.680543-79.695621-57.908387-56.416111a34.040032 34.040032 0 0 1-8.671335-35.120924 33.975502 33.975502 0 0 1 27.675676-23.319842l80.002142-11.639756 35.790433-72.532694a34.459483 34.459483 0 0 1 30.716692-19.076938c13.132031 0 24.900848 7.308121 30.716693 19.076938l35.790433 72.532694 80.018275 11.639756a33.983568 33.983568 0 0 1 27.659543 23.319842 34.088431 34.088431 0 0 1-8.671335 35.120924l-57.916454 56.416111 13.672478 79.703687a34.064232 34.064232 0 0 1-13.607947 33.515719c-10.38947 7.533979-24.812118 8.55034-36.129219 2.573169l-71.540533-37.597297-71.572798 37.613429a33.919037 33.919037 0 0 1-15.947191 3.992848z m87.528055-313.708745c-3.807321 0-7.340386 2.185983-9.010122 5.58192l-38.613658 78.243677a12.11567 12.11567 0 0 1-9.106918 6.614414l-86.318101 12.55932a9.961953 9.961953 0 0 0-8.114757 6.840272c-1.185755 3.678259-0.217792 7.622709 2.540903 10.316872l62.473946 60.860674a12.099538 12.099538 0 0 1 3.484667 10.712124l-14.761436 85.971248c-0.661441 3.807321 0.879233 7.582377 4.017046 9.865156 3.113614 2.242448 7.179059 2.540903 10.550797 0.750172l77.235382-40.589916a12.131803 12.131803 0 0 1 11.260636 0l77.19505 40.565716c3.395937 1.798798 7.582377 1.451945 10.607261-0.742105a10.002284 10.002284 0 0 0 3.984781-9.840957l-14.753369-85.979314a12.099538 12.099538 0 0 1 3.484667-10.712124l62.465879-60.860674a10.002284 10.002284 0 0 0 2.540903-10.316872 9.978085 9.978085 0 0 0-8.098624-6.840272L626.110739 332.374298a12.091471 12.091471 0 0 1-9.106919-6.614414l-38.605591-78.23561a10.131346 10.131346 0 0 0-9.018189-5.598053z" fill="#33363A" p-id="3541"></path><path d="M714.509961 0H396.638975C258.502588 0 146.122082 112.372439 146.122082 250.484627v115.49412l-47.833505 47.833505a133.312705 133.312705 0 0 0-39.307364 94.892641c0 35.846897 13.9548 69.540076 39.307364 94.876507L206.159988 711.452811c0.693707 0.701773 1.427745 1.355148 2.16985 2.000457l0.451717 0.395251a250.250703 250.250703 0 0 0 109.347554 72.50043 48.624008 48.624008 0 0 0-1.427745 11.647821v175.886945a50.172749 50.172749 0 0 0 50.132417 50.116285h396.905165a50.172749 50.172749 0 0 0 50.132418-50.116285V798.004837c0-6.275627-1.169622-12.365727-3.444335-18.092842 93.045444-38.56526 154.591759-129.77964 154.591758-231.40769V250.484627C965.018787 112.372439 852.638282 0 714.509961 0z m49.220919 999.800925H366.825715a25.957541 25.957541 0 0 1-25.933343-25.91721v-34.830535h448.77185v34.830535a25.949475 25.949475 0 0 1-25.933342 25.91721z m177.088832-451.304686c0 94.497389-58.973146 178.911829-147.194908 211.862903-0.35492-0.032265-0.701773-0.104863-1.072826-0.104863h-131.078324a12.099538 12.099538 0 1 0 0 24.199076H785.663308c2.129519 3.347539 4.00898 7.905031 4.00898 13.551482v116.849267H340.892372V798.004837c0-4.581692 1.266418-9.018189 3.76699-13.188496a12.11567 12.11567 0 0 0-7.203258-17.89925c-43.001757-11.704286-81.373424-35.766233-110.960826-69.556208a12.607718 12.607718 0 0 0-0.790504-0.822769c-0.492048-0.475915-1.008295-0.919565-1.516475-1.363214a12.769045 12.769045 0 0 1-0.887299-0.79857L115.397323 586.464588a109.242692 109.242692 0 0 1-32.217035-77.767762c0-29.39381 11.438096-57.004955 32.217035-77.783894l30.724759-30.724759v71.621196c0 0.274256 0.064531 0.53238 0.080664 0.79857l-4.823682 4.823682a12.099538 12.099538 0 1 0 17.116812 17.108746l30.248844-30.248844a12.099538 12.099538 0 1 0-17.108746-17.108746l-1.30675 1.30675V250.476561C170.321158 125.706129 271.844344 24.199075 396.638975 24.199075h317.870986c124.786564 0 226.309751 101.507054 226.309751 226.285552v298.011612z" fill="#33363A" p-id="3542"></path></svg>